# xmcd
#
# Track frame offsets: 
#        150
#        14968
#        31625
#        48475
#        59998
#        74473
#        92033
#        106360
#        118775
#        148875
#        161350
#
# Disc length: 2402 seconds
#
# Revision: 5
# Processed by: cddbd v1.5.2PL0 Copyright (c) Steve Scherf et al.
# Submitted via: ExactAudioCopy v0.99pb5
#
DISCID=a409600b
DTITLE=Jimi Hendrix Experience - Are You Experienced
DYEAR=1967
DGENRE=Progressive Rock
TTITLE0=Foxy Lady
TTITLE1=Manic Depression
TTITLE2=Red House
TTITLE3=Can You See Me
TTITLE4=Love Or Confusion
TTITLE5=I Don't Live Today
TTITLE6=May This Be Love
TTITLE7=Fire
TTITLE8=3rd Stone From The Sun
TTITLE9=Remember
TTITLE10=Are You Experienced
EXTD=YEAR: 1967
EXTT0=
EXTT1=
EXTT2=
EXTT3=
EXTT4=
EXTT5=
EXTT6=
EXTT7=
EXTT8=
EXTT9=
EXTT10=
PLAYORDER=
